<mxfile host="app.diagrams.net" modified="2022-03-11T02:53:09.376Z" agent="5.0 (Windows NT 10.0; Win64; x64) AppleWebKit/537.36 (KHTML, like Gecko) Chrome/99.0.4844.51 Safari/537.36" etag="Unj3FIS5xolUuCvIkfi2" version="17.1.0" type="github">
  <diagram id="xMpqqhogkzzOugJ8N9Hw" name="第 1 页">
    <mxGraphModel dx="1038" dy="539" grid="1" gridSize="10" guides="1" tooltips="1" connect="1" arrows="1" fold="1" page="1" pageScale="1" pageWidth="827" pageHeight="1169" math="0" shadow="0">
      <root>
        <mxCell id="0" />
        <mxCell id="1" parent="0" />
        <mxCell id="ywuYXYeSjkOeo4kP8zRg-1" value="协议库存计划执行率 =&amp;nbsp;主网协议库存计划执行率 × 60% +&amp;nbsp;配网协议库存计划执行率 × 40%" style="rounded=1;whiteSpace=wrap;html=1;fontSize=18;fontFamily=MiSans;fillColor=#d5e8d4;strokeColor=#82b366;" vertex="1" parent="1">
          <mxGeometry x="60" y="70" width="780" height="60" as="geometry" />
        </mxCell>
        <mxCell id="ywuYXYeSjkOeo4kP8zRg-2" value="需求计划管控规范率 = (全年两级批次由年度计划在线生成的采购申请条目数/全年两级采购申请总条目数) ×&amp;nbsp;K" style="rounded=1;whiteSpace=wrap;html=1;fontSize=18;fontFamily=MiSans;fillColor=#fff2cc;strokeColor=#d6b656;" vertex="1" parent="1">
          <mxGeometry x="60" y="160" width="920" height="60" as="geometry" />
        </mxCell>
        <mxCell id="ywuYXYeSjkOeo4kP8zRg-3" value="采购统计分析规范率 = [1-[(估算金额/采购金额)&amp;nbsp;≥ 10的统计条目数+(估算金额/采购金额)&amp;nbsp;≤ 0.1的统计条目数]&amp;nbsp;× 1%] ×&amp;nbsp;100%" style="rounded=1;whiteSpace=wrap;html=1;fontSize=18;fontFamily=MiSans;fillColor=#dae8fc;strokeColor=#6c8ebf;" vertex="1" parent="1">
          <mxGeometry x="60" y="250" width="1030" height="60" as="geometry" />
        </mxCell>
        <mxCell id="ywuYXYeSjkOeo4kP8zRg-4" value="物资采购及时率 =&amp;nbsp;Σ及时完成计划闭环的采购计划条目数/Σ采购计划总条目数 × 100%" style="rounded=1;whiteSpace=wrap;html=1;fontSize=18;fontFamily=MiSans;fillColor=#f5f5f5;strokeColor=#666666;fontColor=#333333;" vertex="1" parent="1">
          <mxGeometry x="60" y="340" width="730" height="60" as="geometry" />
        </mxCell>
      </root>
    </mxGraphModel>
  </diagram>
</mxfile>
